<svg xmlns="http://www.w3.org/2000/svg" xmlns:xlink="http://www.w3.org/1999/xlink" width="31" height="31" viewBox="0 0 31 31"><defs><style>.a,.c{fill:#BEBEBE;}.b{clip-path:url(#a);}.c{fill-rule:evenodd;}</style><clipPath id="a"><rect class="a" width="31" height="31" transform="translate(-0.051)"/></clipPath></defs><g class="b" transform="translate(0.051)"><g transform="translate(0 1.922)"><path class="c" d="M0,6.969A3.844,3.844,0,0,1,3.844,3.125H26.906A3.844,3.844,0,0,1,30.75,6.969V26.187a3.844,3.844,0,0,1-3.844,3.844H3.844A3.844,3.844,0,0,1,0,26.187Zm18.258,10.57H12.492a.961.961,0,0,0,0,1.922h5.766a.961.961,0,1,0,0-1.922Zm-12.211-.68L9.211,13.7,6.047,10.531A.962.962,0,0,1,7.407,9.171l3.844,3.844a.961.961,0,0,1,0,1.361L7.407,18.219a.962.962,0,1,1-1.361-1.361Z" transform="translate(0 -3.125)"/></g></g></svg>