<svg xmlns="http://www.w3.org/2000/svg" xmlns:xlink="http://www.w3.org/1999/xlink" width="31" height="31" viewBox="0 0 31 31"><defs><style>.a,.c{fill:#707070;}.b{clip-path:url(#a);}.c{fill-rule:evenodd;}</style><clipPath id="a"><rect class="a" width="31" height="31" transform="translate(-0.2)"/></clipPath></defs><g class="b" transform="translate(0.2)"><g transform="translate(0 2.579)"><path class="c" d="M19.581,7.138H27.42a3.937,3.937,0,0,1,3.921,4.293l-1.254,13.78a3.937,3.937,0,0,1-3.92,3.581H5.8a3.937,3.937,0,0,1-3.92-3.581L.624,11.431A3.918,3.918,0,0,1,1.3,8.852l-.08-1.714A3.937,3.937,0,0,1,5.155,3.2h7.229a3.937,3.937,0,0,1,2.783,1.154l1.63,1.63A3.937,3.937,0,0,0,19.581,7.138ZM3.2,7.374a3.929,3.929,0,0,1,1.346-.236H15.168L13.776,5.746a1.969,1.969,0,0,0-1.392-.577H5.155A1.969,1.969,0,0,0,3.187,7.1l.011.273Z" transform="translate(-0.608 -3.201)"/></g></g></svg>