<svg width="300" height="130" viewBox="0 0 300 130" fill="none" xmlns="http://www.w3.org/2000/svg">
<path d="M268 130H32C14.3269 130 0 115.673 0 98V49.7821C0 35.4537 9.52465 22.8719 23.3152 18.9831L84.1361 1.83263C88.4216 0.624184 92.9122 0.323397 97.3206 0.949507L272.5 25.8296C288.276 28.0702 300 41.5769 300 57.5116V98C300 115.673 285.673 130 268 130Z" fill="#7B7B7B"/>
<path d="M268 129H32C14.8792 129 1 115.121 1 98V49.7821C1 35.9015 10.227 23.7128 23.5866 19.9456L84.4075 2.7951C88.5591 1.62441 92.9093 1.33303 97.18 1.93957L272.359 26.8196C287.642 28.9903 299 42.0749 299 57.5116V98C299 115.121 285.121 129 268 129Z" stroke="black" stroke-opacity="0.5" stroke-width="2" stroke-linecap="round"/>
</svg>
