<svg width="156" height="63" viewBox="0 0 156 63" fill="none" xmlns="http://www.w3.org/2000/svg">
<path d="M66.0392 1.86964C70.6969 0.652387 75.5345 0.289175 80.3202 0.797403L140.642 7.20337L155.788 58.2344L76.7791 49.8438L31.237 61.746C18.1782 65.1588 4.84161 57.2765 1.44889 44.1404C-1.94384 31.0042 5.89205 17.5887 18.9508 14.1758L66.0392 1.86964Z" fill="#0072FF"/>
<path d="M76.8848 48.8494L76.7031 48.8301L76.5263 48.8763L30.9841 60.7784C18.4655 64.0501 5.67267 56.4953 2.41711 43.8903C-0.838991 31.2831 6.68283 18.4156 19.2037 15.1434L66.2921 2.83715C70.8329 1.65043 75.549 1.29634 80.2146 1.79181L139.873 8.12735L154.403 57.0816L76.8848 48.8494Z" stroke="black" stroke-opacity="0.5" stroke-width="2" stroke-linecap="round"/>
</svg>
