<svg width="604" height="418" viewBox="0 0 604 418" fill="none" xmlns="http://www.w3.org/2000/svg">
<path d="M6.85739 155.843L0.473036 102.1C-0.927019 90.3146 6.90092 79.4095 18.5151 76.9659L154 48.4594L273.326 6.03789C296.914 -2.34764 322.765 -1.54844 345.997 7.77647C377.511 20.4256 423.521 38.1761 458 48.4594C498.342 60.4914 554.471 71.7179 584.695 77.4016C596.646 79.649 604.876 90.7463 603.441 102.822L597.143 155.843C579.379 305.379 452.587 418 302 418C151.413 418 24.6213 305.379 6.85739 155.843Z" fill="#7B7B7B"/>
<path d="M154.206 49.438L154.272 49.4241L154.335 49.4016L273.661 6.98012C297.011 -1.32106 322.611 -0.53265 345.624 8.7045C377.139 21.3541 423.187 39.12 457.714 49.4177C498.111 61.4662 554.287 72.7008 584.51 78.3843C595.95 80.5356 603.82 91.156 602.448 102.704L596.15 155.725C578.445 304.758 452.08 417 302 417C151.92 417 25.5545 304.758 7.85041 155.725L1.46605 101.982C0.127079 90.7108 7.61351 80.2815 18.721 77.9444L154.206 49.438Z" stroke="black" stroke-opacity="0.5" stroke-width="2" stroke-linecap="round"/>
</svg>
