<svg width="239" height="65" viewBox="0 0 239 65" fill="none" xmlns="http://www.w3.org/2000/svg">
<path d="M239 22.0183C239 45.4904 185.498 64.5183 119.5 64.5183C53.502 64.5183 0 45.4904 0 22.0183C0 -1.45384 53.502 0.0182873 119.5 0.0182873C185.498 0.0182873 239 -1.45384 239 22.0183Z" fill="#66ABFF"/>
<path d="M239 22.0183C239 45.4904 185.498 64.5183 119.5 64.5183C53.502 64.5183 0 45.4904 0 22.0183C0 -1.45384 53.502 0.0182873 119.5 0.0182873C185.498 0.0182873 239 -1.45384 239 22.0183Z" fill="#66ABFF"/>
<path d="M238 22.0183C238 27.476 234.893 32.812 228.966 37.7958C223.043 42.7754 214.415 47.3048 203.664 51.1281C182.172 58.7717 152.416 63.5183 119.5 63.5183C86.5842 63.5183 56.8278 58.7717 35.3358 51.1281C24.5855 47.3048 15.9566 42.7754 10.0345 37.7958C4.1074 32.812 1 27.476 1 22.0183C1 16.6396 4.01854 12.6169 9.85436 9.56459C15.7349 6.4889 24.3362 4.48867 35.1186 3.20927C54.2386 0.940551 79.8481 0.972902 108.455 1.00904C112.091 1.01363 115.775 1.01829 119.5 1.01829C123.225 1.01829 126.909 1.01363 130.545 1.00904C159.152 0.972902 184.761 0.940551 203.881 3.20927C214.664 4.48867 223.265 6.4889 229.146 9.56459C234.981 12.6169 238 16.6396 238 22.0183Z" stroke="black" stroke-opacity="0.5" stroke-width="2"/>
</svg>
