<svg width="151" height="86" viewBox="0 0 151 86" fill="none" xmlns="http://www.w3.org/2000/svg">
<path d="M150.5 54.5C150.5 85.1518 103.317 86 63 86C22.6832 86 0 79.1518 0 48.5C0 28 35.1832 0 75.5 0C115.817 0 150.5 36.5 150.5 54.5Z" fill="#66ABFF"/>
<path d="M149.5 54.5C149.5 61.8648 146.683 67.3925 141.842 71.5982C136.962 75.8377 129.981 78.7676 121.635 80.7721C104.936 84.7828 83.1859 85 63 85C42.8441 85 27.3154 83.2778 16.8409 77.8563C11.6341 75.1614 7.69557 71.561 5.04797 66.8043C2.3953 62.0384 1 56.042 1 48.5C1 43.6532 3.08568 38.2601 6.94146 32.8541C10.7903 27.4578 16.3582 22.1137 23.1998 17.3851C36.8856 7.92598 55.5651 1 75.5 1C95.3627 1 113.895 9.99804 127.48 21.2696C134.268 26.9014 139.793 33.078 143.613 38.9368C147.45 44.8216 149.5 50.282 149.5 54.5Z" stroke="black" stroke-opacity="0.5" stroke-width="2"/>
</svg>
