<svg width="78" height="112" viewBox="0 0 78 112" fill="none" xmlns="http://www.w3.org/2000/svg">
<path d="M71.0647 110.336C86.7752 101.707 68.3584 67.1486 52.2502 37.8237C36.1421 8.49887 23.5692 -6.07196 7.85864 2.55785C-2.64862 8.32949 -2.94291 41.8036 13.1653 71.1285C29.2734 100.453 61.8388 115.404 71.0647 110.336Z" fill="#66ABFF"/>
<path d="M70.5832 109.46C74.1173 107.519 75.7991 104.121 76.0191 99.4425C76.2412 94.7218 74.9577 88.8203 72.645 82.1692C68.0239 68.8797 59.4375 52.9853 51.3738 38.3052C43.3178 23.6393 36.22 12.811 29.2469 6.71041C25.7752 3.67315 22.3921 1.86029 18.992 1.28985C15.6097 0.722376 12.1046 1.36647 8.34009 3.43433C6.05941 4.6871 4.17654 7.54934 2.9517 11.8566C1.73644 16.1303 1.22028 21.6569 1.52996 27.9617C2.14911 40.5668 6.06123 56.1186 14.0417 70.6471C21.9976 85.1306 34.0289 96.0783 45.2095 102.772C50.7995 106.118 56.1471 108.384 60.6328 109.502C65.1798 110.635 68.6234 110.537 70.5832 109.46Z" stroke="black" stroke-opacity="0.5" stroke-width="2"/>
</svg>
