<svg xmlns="http://www.w3.org/2000/svg" xmlns:xlink="http://www.w3.org/1999/xlink" width="31" height="31" viewBox="0 0 31 31"><defs><style>.a,.c{fill:#707070;}.b{clip-path:url(#a);}.c{fill-rule:evenodd;}</style><clipPath id="a"><rect class="a" width="31" height="31" transform="translate(-0.25)"/></clipPath></defs><g class="b" transform="translate(0.25)"><g transform="translate(0 0)"><path class="c" d="M18.075,2.019a2.815,2.815,0,0,0-5.4,0l-.192.653A2.814,2.814,0,0,1,8.437,4.348l-.6-.327A2.815,2.815,0,0,0,4.022,7.84l.325.6a2.813,2.813,0,0,1-1.676,4.045l-.653.192a2.815,2.815,0,0,0,0,5.4l.653.192a2.814,2.814,0,0,1,1.676,4.045l-.327.6a2.815,2.815,0,0,0,3.819,3.819l.6-.325a2.814,2.814,0,0,1,4.045,1.676l.192.653a2.815,2.815,0,0,0,5.4,0l.192-.653A2.814,2.814,0,0,1,22.311,26.4l.6.327a2.815,2.815,0,0,0,3.819-3.819l-.325-.6a2.814,2.814,0,0,1,1.676-4.045l.653-.192a2.815,2.815,0,0,0,0-5.4l-.653-.192A2.814,2.814,0,0,1,26.4,8.439l.327-.6A2.815,2.815,0,0,0,22.91,4.023l-.6.325a2.814,2.814,0,0,1-4.045-1.676l-.192-.653Zm-2.7,18.988a5.631,5.631,0,1,0-5.629-5.633,5.631,5.631,0,0,0,5.629,5.633Z" transform="translate(0.001 -0.001)"/></g></g></svg>