<svg
  xmlns="http://www.w3.org/2000/svg"
  xmlns:xlink="http://www.w3.org/1999/xlink"
  width="31"
  height="31"
  viewBox="0 0 31 31"
><defs><style
    >.a,.c{fill:#BEBEBE;}.b{clip-path:url(#a);}.c{fill-rule:evenodd;}</style><clipPath
      id="a"
    ><rect
        class="a"
        width="31"
        height="31"
        transform="translate(-0.101)"
      /></clipPath></defs><g class="b" transform="translate(0.101)"><g
      transform="translate(2.196 0)"
    ><path
        class="c"
        d="M7.143,7.964a4.393,4.393,0,0,1,4.393-4.393H23.161a2.2,2.2,0,0,1,1.553.643l8.142,8.142A2.2,2.2,0,0,1,33.5,13.91V29.928a4.393,4.393,0,0,1-4.393,4.393H11.536a4.393,4.393,0,0,1-4.393-4.393Zm15.375,4.393V5.768L31.3,14.554H24.714A2.2,2.2,0,0,1,22.518,12.357Zm-1.1,4.393a1.1,1.1,0,0,0-2.2,0v3.295H15.929a1.1,1.1,0,0,0,0,2.2h3.295v3.295a1.1,1.1,0,1,0,2.2,0V22.241h3.295a1.1,1.1,0,0,0,0-2.2H21.42Z"
        transform="translate(-7.143 -3.571)"
      /></g></g></svg>
