<svg xmlns="http://www.w3.org/2000/svg" xmlns:xlink="http://www.w3.org/1999/xlink" width="31" height="31" viewBox="0 0 31 31"><defs><style>.a{fill:#BEBEBE;}.b{clip-path:url(#a);}</style><clipPath id="a"><rect class="a" width="31" height="31" transform="translate(-0.151)"/></clipPath></defs><g class="b" transform="translate(0.151)"><g transform="translate(0 0)"><path class="a" d="M34.213,8.333H32.932a.643.643,0,0,0-.641.641v5.766c0,.352.608.641.961.641h.961a.643.643,0,0,0,.641-.641V8.975A.643.643,0,0,0,34.213,8.333Z" transform="translate(-17.557 -8.333)"/><path class="a" d="M37.955,13.627,33.8,9.47a3.875,3.875,0,0,0-2.731-1.137H28.824a1.293,1.293,0,0,0-1.281,1.3v6.406a1.285,1.285,0,0,1-1.281,1.281H16.021a1.285,1.285,0,0,1-1.281-1.281V9.631a1.3,1.3,0,0,0-1.281-1.3H10.9A2.569,2.569,0,0,0,8.333,10.9V36.521A2.569,2.569,0,0,0,10.9,39.083H36.521a2.569,2.569,0,0,0,2.562-2.562V16.341a3.849,3.849,0,0,0-1.129-2.715ZM28.994,35.247a1.363,1.363,0,0,1-1.426,1.281H14.724A1.363,1.363,0,0,1,13.3,35.247V27.56a1.363,1.363,0,0,1,1.426-1.281H27.568a1.363,1.363,0,0,1,1.426,1.281Z" transform="translate(-8.333 -8.333)"/></g></g></svg>