<svg xmlns="http://www.w3.org/2000/svg" width="328" height="276" viewBox="0 0 328 276"><defs><style>.a,.d{fill:#3b3b3b;}.b{fill:#c4c4c4;}.c,.e{fill:none;stroke:#707070;}.c,.d,.e{stroke-linecap:round;stroke-linejoin:bevel;}.c{stroke-width:30px;}.d{stroke:#3b3b3b;stroke-width:26px;}.e{stroke-width:20px;}.f{fill:#eee;}</style></defs><g transform="translate(0 0.388)"><ellipse class="a" cx="164" cy="138" rx="164" ry="138" transform="translate(0 -0.388)"/><ellipse class="b" cx="82" cy="67" rx="82" ry="67" transform="translate(82 71.612)"/><path class="c" d="M105.938,552.513S88.406,535.6,86.379,500c-1.9-33.428,17.014-54.468,19.559-57.149h0" transform="translate(-57.957 -358.94)"/><path class="c" d="M86.244,552.513S101.475,535.6,103.236,500c1.654-33.428-14.78-54.468-16.991-57.149h0" transform="translate(193.438 -358.94)"/><path class="c" d="M0,127.333s12.365-19.639,13.795-60.975C15.137,27.543,1.8,3.113,0,0H0" transform="translate(227.498 239.348) rotate(90)"/><path class="c" d="M0,127.333s12.365-19.639,13.795-60.975C15.137,27.543,1.8,3.113,0,0H0" transform="translate(100.165 38.734) rotate(-90)"/><path class="d" d="M0,78.71S5.094,66.57,5.683,41.018C6.236,17.025.74,1.924,0,0H0" transform="translate(203.186 231.804) rotate(90)"/><path class="e" d="M0,78.71S5.094,66.57,5.683,41.018C6.236,17.025.74,1.924,0,0H0" transform="translate(203.186 231.804) rotate(90)"/><path class="d" d="M0,78.71S5.094,66.57,5.683,41.018C6.236,17.025.74,1.924,0,0H0" transform="translate(124.477 50.59) rotate(-90)"/><path class="e" d="M0,78.71S5.094,66.57,5.683,41.018C6.236,17.025.74,1.924,0,0H0" transform="translate(124.477 50.59) rotate(-90)"/><ellipse class="a" cx="38" cy="37.5" rx="38" ry="37.5" transform="translate(126 101.612)"/><ellipse class="f" cx="11.5" cy="11" rx="11.5" ry="11" transform="translate(143 116.612)"/></g></svg>