<svg xmlns="http://www.w3.org/2000/svg" width="662" height="532" viewBox="0 0 662 532"><defs><style>.a{fill:#3b3b3b;}.b,.c{fill:#707070;}.c{stroke:#3b3b3b;stroke-width:30px;}.d{stroke:none;}.e{fill:none;}</style></defs><g transform="translate(0.954 0.458)"><path class="a" d="M82.75,0h496.5A82.75,82.75,0,0,1,662,82.75V91A331,331,0,0,1,331,422h0A331,331,0,0,1,0,91V82.75A82.75,82.75,0,0,1,82.75,0Z" transform="translate(-0.954 88.542)"/><path class="a" d="M537.553,634.377s14.451,16.9,61.2,30.93,81.761,19.322,81.761,19.322H237.476a617.5,617.5,0,0,0,84.558-19.322c46.328-14.031,60.127-30.93,60.127-30.93Z" transform="translate(-128.951 -594.091)"/><path class="a" d="M588.946,634.377s16.926,12.551,71.686,22.972S756.4,671.7,756.4,671.7H237.476s44.778-3.93,99.041-14.35,70.424-22.972,70.424-22.972Z" transform="translate(-166.891 -581.161)"/><ellipse class="a" cx="106.5" cy="123" rx="106.5" ry="123" transform="translate(225.186 -0.458)"/><circle class="b" cx="62.5" cy="62.5" r="62.5" transform="translate(21.686 114.542)"/><circle class="b" cx="62.5" cy="62.5" r="62.5" transform="translate(501.686 114.542)"/><path class="a" d="M104.4,0H387.321a104.4,104.4,0,0,1,104.4,104.4v0a208.8,208.8,0,0,1-208.8,208.8H208.8A208.8,208.8,0,0,1,0,104.4v0A104.4,104.4,0,0,1,104.4,0Z" transform="translate(84.186 158.444)"/><path class="b" d="M68.333,0H341.667A68.333,68.333,0,0,1,410,68.333v0A136.667,136.667,0,0,1,273.333,205H136.667A136.667,136.667,0,0,1,0,68.333v0A68.333,68.333,0,0,1,68.333,0Z" transform="translate(125.046 212.542)"/><g class="c" transform="translate(177.423 254.542)"><path class="d" d="M36.667,0H268.579a36.667,36.667,0,0,1,36.667,36.667v0A73.333,73.333,0,0,1,231.912,110H73.333A73.333,73.333,0,0,1,0,36.667v0A36.667,36.667,0,0,1,36.667,0Z"/><path class="e" d="M40.965,15H264.281a25.965,25.965,0,0,1,25.965,25.965v0A54.035,54.035,0,0,1,236.211,95H69.035A54.035,54.035,0,0,1,15,40.965v0A25.965,25.965,0,0,1,40.965,15Z"/></g><ellipse class="b" cx="130.5" cy="40.5" rx="130.5" ry="40.5" transform="translate(199.686 450.542)"/><ellipse class="b" cx="34" cy="38.5" rx="34" ry="38.5" transform="translate(249.186 88.542)"/><ellipse class="b" cx="34" cy="38.5" rx="34" ry="38.5" transform="translate(346.186 88.542)"/><ellipse class="a" cx="55.5" cy="80.5" rx="55.5" ry="80.5" transform="translate(276.186 24.542)"/><ellipse class="b" cx="48.5" cy="70.347" rx="48.5" ry="70.347" transform="translate(283.186 34.695)"/></g></svg>