<svg xmlns="http://www.w3.org/2000/svg" xmlns:xlink="http://www.w3.org/1999/xlink" width="856" height="50" viewBox="0 0 856 50"><defs><style>.a,.d{fill:#707070;}.b{fill:#3b3b3b;}.c{clip-path:url(#a);}.d{fill-rule:evenodd;}.e{clip-path:url(#b);}.f{clip-path:url(#c);}.g{clip-path:url(#d);}.h{clip-path:url(#e);}.i{fill:#9c9c9c;font-size:23px;font-family:Consolas;}</style><clipPath id="a"><rect class="a" width="31" height="31" transform="translate(-0.25)"/></clipPath><clipPath id="b"><rect class="a" width="31" height="31" transform="translate(-0.2)"/></clipPath><clipPath id="c"><rect class="a" width="31" height="31" transform="translate(-0.151)"/></clipPath><clipPath id="d"><rect class="a" width="31" height="31" transform="translate(-0.101)"/></clipPath><clipPath id="e"><rect class="a" width="31" height="31" transform="translate(-0.051)"/></clipPath></defs><g transform="translate(-25 -17)"><rect class="b" width="856" height="50" rx="20" transform="translate(25 17)"/><g transform="translate(838 27)"><g class="c" transform="translate(0.25)"><g transform="translate(0 0)"><path class="d" d="M18.075,2.019a2.815,2.815,0,0,0-5.4,0l-.192.653A2.814,2.814,0,0,1,8.437,4.348l-.6-.327A2.815,2.815,0,0,0,4.022,7.84l.325.6a2.813,2.813,0,0,1-1.676,4.045l-.653.192a2.815,2.815,0,0,0,0,5.4l.653.192a2.814,2.814,0,0,1,1.676,4.045l-.327.6a2.815,2.815,0,0,0,3.819,3.819l.6-.325a2.814,2.814,0,0,1,4.045,1.676l.192.653a2.815,2.815,0,0,0,5.4,0l.192-.653A2.814,2.814,0,0,1,22.311,26.4l.6.327a2.815,2.815,0,0,0,3.819-3.819l-.325-.6a2.814,2.814,0,0,1,1.676-4.045l.653-.192a2.815,2.815,0,0,0,0-5.4l-.653-.192A2.814,2.814,0,0,1,26.4,8.439l.327-.6A2.815,2.815,0,0,0,22.91,4.023l-.6.325a2.814,2.814,0,0,1-4.045-1.676l-.192-.653Zm-2.7,18.988a5.631,5.631,0,1,0-5.629-5.633,5.631,5.631,0,0,0,5.629,5.633Z" transform="translate(0.001 -0.001)"/></g></g></g><g transform="translate(795 27)"><g class="e" transform="translate(0.2)"><g transform="translate(0 2.579)"><path class="d" d="M19.581,7.138H27.42a3.937,3.937,0,0,1,3.921,4.293l-1.254,13.78a3.937,3.937,0,0,1-3.92,3.581H5.8a3.937,3.937,0,0,1-3.92-3.581L.624,11.431A3.918,3.918,0,0,1,1.3,8.852l-.08-1.714A3.937,3.937,0,0,1,5.155,3.2h7.229a3.937,3.937,0,0,1,2.783,1.154l1.63,1.63A3.937,3.937,0,0,0,19.581,7.138ZM3.2,7.374a3.929,3.929,0,0,1,1.346-.236H15.168L13.776,5.746a1.969,1.969,0,0,0-1.392-.577H5.155A1.969,1.969,0,0,0,3.187,7.1l.011.273Z" transform="translate(-0.608 -3.201)"/></g></g></g><g transform="translate(752 27)"><g class="f" transform="translate(0.151)"><g transform="translate(0 0)"><path class="a" d="M34.213,8.333H32.932a.643.643,0,0,0-.641.641v5.766c0,.352.608.641.961.641h.961a.643.643,0,0,0,.641-.641V8.975A.643.643,0,0,0,34.213,8.333Z" transform="translate(-17.557 -8.333)"/><path class="a" d="M37.955,13.627,33.8,9.47a3.875,3.875,0,0,0-2.731-1.137H28.824a1.293,1.293,0,0,0-1.281,1.3v6.406a1.285,1.285,0,0,1-1.281,1.281H16.021a1.285,1.285,0,0,1-1.281-1.281V9.631a1.3,1.3,0,0,0-1.281-1.3H10.9A2.569,2.569,0,0,0,8.333,10.9V36.521A2.569,2.569,0,0,0,10.9,39.083H36.521a2.569,2.569,0,0,0,2.562-2.562V16.341a3.849,3.849,0,0,0-1.129-2.715ZM28.994,35.247a1.363,1.363,0,0,1-1.426,1.281H14.724A1.363,1.363,0,0,1,13.3,35.247V27.56a1.363,1.363,0,0,1,1.426-1.281H27.568a1.363,1.363,0,0,1,1.426,1.281Z" transform="translate(-8.333 -8.333)"/></g></g></g><g transform="translate(709 27)"><g class="g" transform="translate(0.101)"><g transform="translate(2.196 0)"><path class="d" d="M7.143,7.964a4.393,4.393,0,0,1,4.393-4.393H23.161a2.2,2.2,0,0,1,1.553.643l8.142,8.142A2.2,2.2,0,0,1,33.5,13.91V29.928a4.393,4.393,0,0,1-4.393,4.393H11.536a4.393,4.393,0,0,1-4.393-4.393Zm15.375,4.393V5.768L31.3,14.554H24.714A2.2,2.2,0,0,1,22.518,12.357Zm-1.1,4.393a1.1,1.1,0,0,0-2.2,0v3.295H15.929a1.1,1.1,0,0,0,0,2.2h3.295v3.295a1.1,1.1,0,1,0,2.2,0V22.241h3.295a1.1,1.1,0,0,0,0-2.2H21.42Z" transform="translate(-7.143 -3.571)"/></g></g></g><g transform="translate(666 27)"><g class="h" transform="translate(0.051)"><g transform="translate(0 1.922)"><path class="d" d="M0,6.969A3.844,3.844,0,0,1,3.844,3.125H26.906A3.844,3.844,0,0,1,30.75,6.969V26.187a3.844,3.844,0,0,1-3.844,3.844H3.844A3.844,3.844,0,0,1,0,26.187Zm18.258,10.57H12.492a.961.961,0,0,0,0,1.922h5.766a.961.961,0,1,0,0-1.922Zm-12.211-.68L9.211,13.7,6.047,10.531A.962.962,0,0,1,7.407,9.171l3.844,3.844a.961.961,0,0,1,0,1.361L7.407,18.219a.962.962,0,1,1-1.361-1.361Z" transform="translate(0 -3.125)"/></g></g></g><text class="i" transform="translate(43 49)"><tspan x="0" y="0">Khaos Systems | Inari</tspan></text></g></svg>